<?xml version="1.0" encoding="utf-8"?>
<!-- Generator: Adobe Illustrator 24.0.1, SVG Export Plug-In . SVG Version: 6.00 Build 0)  -->
<svg version="1.1" xmlns="http://www.w3.org/2000/svg" xmlns:xlink="http://www.w3.org/1999/xlink" x="0px" y="0px"
	 viewBox="0 0 895.69 362" style="enable-background:new 0 0 895.69 362;" xml:space="preserve">
<style type="text/css">
	.st0{display:none;fill:#262626;}
	.st1{fill:#6B1BE0;}
</style>
<g id="Layer_1">
	<rect x="-52.31" y="-319" class="st0" width="1000" height="1000"/>
	<g>
		<path class="st1" d="M94.26,81.27H0V26.28h255.32v54.98H161.4v255.26H94.26V81.27z"/>
		<path class="st1" d="M550.34,240.89c-12.47,57.87-56.11,100.03-133.8,100.03c-98.37,0-144.88-69.62-144.88-157.88
			c0-85.05,47.99-161.26,148.11-161.26c82.61,0,122.66,48.5,130.23,100.35h-67.08c-6.48-23.92-23.12-47.75-65.29-47.75
			c-55.32,0-76.68,49.76-76.68,106.22c0,52.45,18.54,107.7,78.48,107.7c43.77,0,57.59-29.32,63.44-47.42H550.34z"/>
	</g>
</g>
<g id="Layer_2">
	<path class="st1" d="M607.69,0v362h288V0H607.69z M752.69,340.83c-68.85,0-98.55-39.15-106.65-78.75h9.9
		c9.9,39.6,41.4,69.75,96.75,69.75c58.5,0,94.5-33.75,94.5-83.25c0-45.9-36.9-76.05-94.05-76.05h-23.85v-9h23.4
		c59.85,0,80.1-30.15,80.1-63c0-39.6-28.8-70.65-79.65-70.65c-49.5,0-75.6,23.85-87.75,64.35h-9.45
		c11.25-43.65,41.4-73.35,97.2-73.35c58.05,0,89.55,36,89.55,79.2c0,38.25-23.85,60.75-55.8,67.5v0.45
		c41.85,8.55,70.2,36.9,70.2,80.1C857.09,302.58,817.49,340.83,752.69,340.83z"/>
</g>
</svg>
